<svg width="168" height="180" viewBox="0 0 168 180" fill="none" xmlns="http://www.w3.org/2000/svg" xmlns:xlink="http://www.w3.org/1999/xlink">
<path d="M108.537 60.9366C102.029 67.4441 93.2032 71.1 84.0002 71.1C74.7972 71.1 65.9711 67.4441 59.4636 60.9366C52.9561 54.4291 49.3002 45.603 49.3002 36.4C49.3002 27.1969 52.9561 18.3709 59.4636 11.8633C65.9711 5.35584 74.7972 1.69995 84.0002 1.69995C93.2032 1.69995 102.029 5.35584 108.537 11.8633C115.044 18.3709 118.7 27.1969 118.7 36.4C118.7 45.603 115.044 54.4291 108.537 60.9366ZM1.70627 178.2C1.83346 167.733 3.95655 157.382 7.96491 147.705C12.1009 137.72 18.163 128.647 25.8053 121.005C33.4476 113.363 42.5203 107.301 52.5054 103.165C62.4905 99.0287 73.1924 96.9 84.0002 96.9C94.808 96.9 105.51 99.0287 115.495 103.165C125.48 107.301 134.553 113.363 142.195 121.005C149.837 128.647 155.9 137.72 160.036 147.705C164.044 157.382 166.167 167.733 166.294 178.2H1.70627Z" stroke="#8BBF48" stroke-width="2"/>
<path d="M583 147L732 68" stroke="black" stroke-opacity="0.1"/>
<path d="M578 212L732 245" stroke="black" stroke-opacity="0.1"/>
<path d="M511 147L362 68" stroke="black" stroke-opacity="0.1"/>
<path d="M516 212L362 252" stroke="black" stroke-opacity="0.1"/>
<defs>
<filter id="filter0_d_785_11049" x="0" y="0" width="390" height="144" filterUnits="userSpaceOnUse" color-interpolation-filters="sRGB">
<feFlood flood-opacity="0" result="BackgroundImageFix"/>
<feColorMatrix in="SourceAlpha" type="matrix" values="0 0 0 0 0 0 0 0 0 0 0 0 0 0 0 0 0 0 127 0" result="hardAlpha"/>
<feOffset dy="4"/>
<feGaussianBlur stdDeviation="14"/>
<feComposite in2="hardAlpha" operator="out"/>
<feColorMatrix type="matrix" values="0 0 0 0 0.0352941 0 0 0 0 0.172549 0 0 0 0 0.298039 0 0 0 0.05 0"/>
<feBlend mode="normal" in2="BackgroundImageFix" result="effect1_dropShadow_785_11049"/>
<feBlend mode="normal" in="SourceGraphic" in2="effect1_dropShadow_785_11049" result="shape"/>
</filter>
<pattern id="pattern0" patternContentUnits="objectBoundingBox" width="1" height="1">
<use xlink:href="#image0_785_11049" transform="scale(0.0025)"/>
</pattern>
<filter id="filter1_d_785_11049" x="0" y="192" width="390" height="156" filterUnits="userSpaceOnUse" color-interpolation-filters="sRGB">
<feFlood flood-opacity="0" result="BackgroundImageFix"/>
<feColorMatrix in="SourceAlpha" type="matrix" values="0 0 0 0 0 0 0 0 0 0 0 0 0 0 0 0 0 0 127 0" result="hardAlpha"/>
<feOffset dy="4"/>
<feGaussianBlur stdDeviation="14"/>
<feComposite in2="hardAlpha" operator="out"/>
<feColorMatrix type="matrix" values="0 0 0 0 0.0352941 0 0 0 0 0.172549 0 0 0 0 0.298039 0 0 0 0.05 0"/>
<feBlend mode="normal" in2="BackgroundImageFix" result="effect1_dropShadow_785_11049"/>
<feBlend mode="normal" in="SourceGraphic" in2="effect1_dropShadow_785_11049" result="shape"/>
</filter>
<pattern id="pattern1" patternContentUnits="objectBoundingBox" width="1" height="1">
<use xlink:href="#image0_785_11049" transform="scale(0.0025)"/>
</pattern>
<filter id="filter2_d_785_11049" x="704" y="0" width="390" height="156" filterUnits="userSpaceOnUse" color-interpolation-filters="sRGB">
<feFlood flood-opacity="0" result="BackgroundImageFix"/>
<feColorMatrix in="SourceAlpha" type="matrix" values="0 0 0 0 0 0 0 0 0 0 0 0 0 0 0 0 0 0 127 0" result="hardAlpha"/>
<feOffset dy="4"/>
<feGaussianBlur stdDeviation="14"/>
<feComposite in2="hardAlpha" operator="out"/>
<feColorMatrix type="matrix" values="0 0 0 0 0.0352941 0 0 0 0 0.172549 0 0 0 0 0.298039 0 0 0 0.05 0"/>
<feBlend mode="normal" in2="BackgroundImageFix" result="effect1_dropShadow_785_11049"/>
<feBlend mode="normal" in="SourceGraphic" in2="effect1_dropShadow_785_11049" result="shape"/>
</filter>
<pattern id="pattern2" patternContentUnits="objectBoundingBox" width="1" height="1">
<use xlink:href="#image0_785_11049" transform="scale(0.0025)"/>
</pattern>
<filter id="filter3_d_785_11049" x="704" y="192" width="390" height="156" filterUnits="userSpaceOnUse" color-interpolation-filters="sRGB">
<feFlood flood-opacity="0" result="BackgroundImageFix"/>
<feColorMatrix in="SourceAlpha" type="matrix" values="0 0 0 0 0 0 0 0 0 0 0 0 0 0 0 0 0 0 127 0" result="hardAlpha"/>
<feOffset dy="4"/>
<feGaussianBlur stdDeviation="14"/>
<feComposite in2="hardAlpha" operator="out"/>
<feColorMatrix type="matrix" values="0 0 0 0 0.0352941 0 0 0 0 0.172549 0 0 0 0 0.298039 0 0 0 0.05 0"/>
<feBlend mode="normal" in2="BackgroundImageFix" result="effect1_dropShadow_785_11049"/>
<feBlend mode="normal" in="SourceGraphic" in2="effect1_dropShadow_785_11049" result="shape"/>
</filter>
<pattern id="pattern3" patternContentUnits="objectBoundingBox" width="1" height="1">
<use xlink:href="#image0_785_11049" transform="scale(0.0025)"/>
</pattern>
</defs>
</svg>
