<svg width="18" height="26" viewBox="0 0 18 26" fill="none" xmlns="http://www.w3.org/2000/svg">
<path d="M8.70508 22.1367H7.62899C7.37002 22.1367 7.16016 21.9268 7.16016 21.6679V17.6954C7.16016 17.4364 7.37002 17.2266 7.62899 17.2266H8.70508C10.0588 17.2266 11.1601 18.328 11.1601 19.6816C11.1601 21.0353 10.0588 22.1367 8.70508 22.1367ZM8.09783 21.199H8.70508C9.54154 21.199 10.2225 20.5181 10.2225 19.6816C10.2225 18.8452 9.54154 18.1642 8.70508 18.1642H8.09783V21.199Z" fill="#0F233E"/>
<path d="M4.78847 20.2926H3.44149C3.18252 20.2926 2.97266 20.0827 2.97266 19.8238C2.97266 19.5648 3.18252 19.3549 3.44149 19.3549H4.78847C4.98419 19.3549 5.16726 19.2872 5.30419 19.1637C5.42773 19.0521 5.49545 18.9084 5.49545 18.7603C5.49545 18.4374 5.17173 18.1642 4.78847 18.1642H3.44149C3.18252 18.1642 2.97266 17.9544 2.97266 17.6954C2.97266 17.4364 3.18252 17.2266 3.44149 17.2266H4.78847C5.69563 17.2266 6.43312 17.9149 6.43312 18.7603C6.43312 19.1763 6.25601 19.567 5.93377 19.8587C5.62345 20.1386 5.21712 20.2926 4.78847 20.2926Z" fill="#0F233E"/>
<path d="M3.43759 22.1367C3.17861 22.1367 2.96875 21.9268 2.96875 21.6679V17.6954C2.96875 17.4364 3.17861 17.2266 3.43759 17.2266C3.69656 17.2266 3.90642 17.4364 3.90642 17.6954V21.6671C3.90642 21.9268 3.69656 22.1367 3.43759 22.1367Z" fill="#0F233E"/>
<path d="M12.4493 22.136C12.1903 22.136 11.9805 21.9261 11.9805 21.6671V17.6954C11.9805 17.4364 12.1903 17.2266 12.4493 17.2266H15.0971C15.3561 17.2266 15.566 17.4364 15.566 17.6954C15.566 17.9544 15.3561 18.1642 15.0971 18.1642H12.9181V21.6671C12.9181 21.9261 12.7083 22.136 12.4493 22.136Z" fill="#0F233E"/>
<path d="M14.0657 20.1506H12.4493C12.1903 20.1506 11.9805 19.9407 11.9805 19.6817C11.9805 19.4228 12.1903 19.2129 12.4493 19.2129H14.0657C14.3247 19.2129 14.5345 19.4228 14.5345 19.6817C14.5345 19.9407 14.3247 20.1506 14.0657 20.1506Z" fill="#0F233E"/>
<path d="M16.9761 25.4543H1.0252C0.758783 25.4543 0.542969 25.2385 0.542969 24.9728V1.02715C0.542969 0.760736 0.758783 0.544922 1.0252 0.544922H12.5601C12.6881 0.544922 12.8101 0.595527 12.9009 0.686317L17.3169 5.10232C17.407 5.19237 17.4583 5.31516 17.4583 5.44316V24.9721C17.4583 25.2385 17.2425 25.4543 16.9761 25.4543ZM1.50669 24.4906H16.4946V5.64334L12.3606 1.50939H1.50669V24.4906Z" fill="#0F233E"/>
<path d="M16.1897 5.76741H12.5916C12.3252 5.76741 12.1094 5.55159 12.1094 5.28518V1.16387C12.1094 0.897455 12.3252 0.681641 12.5916 0.681641C12.858 0.681641 13.0738 0.897455 13.0738 1.16387V4.80369H16.1905C16.4569 4.80369 16.6727 5.0195 16.6727 5.28592C16.6727 5.55234 16.4554 5.76741 16.1897 5.76741Z" fill="#0F233E"/>
</svg>
