<svg width="1014" height="1775" viewBox="0 0 1014 1775" fill="none" xmlns="http://www.w3.org/2000/svg">
<g opacity="0.4">
<path d="M634.844 451.472C737.184 619.259 680.818 832.55 508.948 927.872L-752.7 1627.6L-1123.3 1019.99L138.344 320.264C310.214 224.942 532.505 283.686 634.844 451.472Z" stroke="#729F38"/>
<path d="M696.771 417.127C807.177 598.137 746.368 828.238 560.953 931.072L-800.022 1685.89L-1199.83 1030.4L161.141 275.578C346.556 172.743 586.366 236.117 696.771 417.127Z" stroke="#729F38"/>
<path d="M749.144 388.081C866.37 580.274 801.805 824.591 604.934 933.779L-840.043 1735.19L-1264.56 1039.19L180.421 237.786C377.292 128.599 631.917 195.888 749.144 388.081Z" stroke="#729F38"/>
<path d="M790.358 365.228C912.952 566.222 845.43 821.726 639.545 935.914L-871.536 1773.98L-1315.49 1046.12L195.593 208.052C401.479 93.8646 667.764 164.235 790.358 365.228Z" stroke="#729F38"/>
</g>
</svg>
