<svg width="484" height="128" viewBox="0 0 484 128" fill="none" xmlns="http://www.w3.org/2000/svg">
<path d="M39.1477 126.363V100.292L32.1528 106.545V117.355H0.358398V126.363H39.1477Z" fill="white"/>
<path d="M39.6996 97.3498V72.4827H32.7755V88.746H24.2767V74.1501H16.6172V88.746H8.9577V72.4827H0.878176V97.3498H39.6996Z" fill="white"/>
<path fill-rule="evenodd" clip-rule="evenodd" d="M2.31896 30.9417H40.1767V17.0271C40.1767 7.63381 32.562 0.019043 23.1687 0.019043H19.327C9.93372 0.019043 2.31896 7.6338 2.31896 17.0271V30.9417ZM8.79859 23.0001H33.6955V20.4125C33.6955 14.3345 29.1018 8.4068 23.0238 8.4068H19.4703C13.3923 8.4068 8.79859 14.3345 8.79859 20.4125V23.0001Z" fill="white"/>
<path fill-rule="evenodd" clip-rule="evenodd" d="M40.0474 35.71V44.8472L32.5829 46.9644V57.4388L40.0474 59.8902V68.5817L1.16738 56.8274V45.8313L40.0474 35.71ZM25.2197 47.7186V56.5731L9.07216 51.4468L25.2197 47.7186Z" fill="white"/>
<path d="M206.244 3.38721H220.548V45.0223C220.548 53.4867 227.41 60.3485 235.874 60.3485C244.338 60.3485 251.2 53.4867 251.2 45.0223V3.38721H266.185V45.5477C266.185 62.1001 252.767 75.5184 236.215 75.5184C219.662 75.5184 206.244 62.1 206.244 45.5477V3.38721Z" fill="white"/>
<path d="M140.468 72.1849L188.224 72.1849L174.009 59.6406L155.289 59.6406L155.289 3.28906L140.468 3.28906L140.468 72.1849Z" fill="white"/>
<path fill-rule="evenodd" clip-rule="evenodd" d="M122.21 72.4819L106.274 72.4819L99.6801 57.0048L70.3168 57.0048L63.847 72.4819L48.4188 72.4819L78.4026 2.62109L92.8354 2.62109L122.21 72.4819ZM94.4535 43.4429L75.1686 43.4429L85.1218 20.674L94.4535 43.4429Z" fill="white"/>
<path d="M289.646 72.4381H304.184V27.7117L323.899 56.0195L344.846 27.7117V72.4381H358.151V3.93311H342.299L323.899 32.8071L305.498 3.93311H289.646V72.4381Z" fill="white"/>
<path d="M384.178 3.38037V72.5756H397.33V27.2275L432.214 72.5756H444.223V3.38037H430.498V47.1277L397.33 3.38037H384.178Z" fill="white"/>
<path d="M470.005 3.38037V47.1277V72.5756H471.72H483.73V3.38037H470.005Z" fill="white"/>
<path fill-rule="evenodd" clip-rule="evenodd" d="M310.726 83.7573L313.737 83.777L332.232 123.298L329.212 124.712L323.543 112.598H300.472L294.603 124.722L291.602 123.269L310.726 83.7573ZM302.086 109.263H321.982L312.201 88.3635L302.086 109.263Z" fill="white"/>
<path fill-rule="evenodd" clip-rule="evenodd" d="M67.1839 86.3335L70.1951 86.3532L88.6902 125.874L85.6697 127.288L80.0005 115.174H56.9298L51.0614 127.298L48.0596 125.845L67.1839 86.3335ZM58.5439 111.839H78.4398L68.6594 90.9397L58.5439 111.839Z" fill="white"/>
<path fill-rule="evenodd" clip-rule="evenodd" d="M483.275 81.0059V121.457H479.94V81.0059H483.275Z" fill="white"/>
<path fill-rule="evenodd" clip-rule="evenodd" d="M453.932 82.2883L482.642 119.437L480.004 121.476L451.293 84.3276L453.932 82.2883Z" fill="white"/>
<path fill-rule="evenodd" clip-rule="evenodd" d="M453.902 82.2817L453.902 121.457L450.567 121.457L450.567 82.2817L453.902 82.2817Z" fill="white"/>
<path fill-rule="evenodd" clip-rule="evenodd" d="M416.774 86.2944C407.199 86.2944 399.437 94.0563 399.437 103.631C399.437 113.206 407.199 120.968 416.774 120.968C426.349 120.968 434.111 113.206 434.111 103.631C434.111 94.0563 426.349 86.2944 416.774 86.2944ZM396.103 103.631C396.103 92.2145 405.358 82.9595 416.774 82.9595C428.191 82.9595 437.446 92.2145 437.446 103.631C437.446 115.048 428.191 124.303 416.774 124.303C405.358 124.303 396.103 115.048 396.103 103.631Z" fill="white"/>
<path fill-rule="evenodd" clip-rule="evenodd" d="M196.97 87.5229C187.396 87.5229 179.634 95.2848 179.634 104.86C179.634 114.434 187.396 122.196 196.97 122.196C206.545 122.196 214.307 114.434 214.307 104.86C214.307 95.2848 206.545 87.5229 196.97 87.5229ZM176.299 104.86C176.299 93.443 185.554 84.188 196.97 84.188C208.387 84.188 217.642 93.443 217.642 104.86C217.642 116.276 208.387 125.531 196.97 125.531C185.554 125.531 176.299 116.276 176.299 104.86Z" fill="white"/>
<path fill-rule="evenodd" clip-rule="evenodd" d="M141.837 87.7989C143.99 85.4482 147.235 84.1333 151.533 84.1333C155.843 84.1333 159.179 85.4785 161.439 86.8307C162.567 87.5057 163.429 88.1839 164.017 88.7016C164.312 88.9608 164.539 89.1809 164.697 89.3418C164.776 89.4223 164.838 89.4881 164.883 89.5367C164.905 89.561 164.923 89.5811 164.937 89.5965C164.944 89.6043 164.95 89.6109 164.955 89.6163L164.961 89.6235L164.965 89.6277C164.965 89.6283 164.966 89.6289 163.707 90.7222L164.966 89.6289L166.059 90.8879L163.541 93.0745L162.453 91.8213L162.453 91.821L162.451 91.8196C162.449 91.8164 162.442 91.8088 162.431 91.7971C162.409 91.7737 162.372 91.7337 162.319 91.6796C162.212 91.5714 162.043 91.407 161.814 91.2048C161.354 90.7998 160.654 90.2476 159.726 89.6923C157.874 88.5838 155.123 87.4682 151.533 87.4682C147.931 87.4682 145.672 88.5493 144.296 90.0515C142.895 91.581 142.192 93.7838 142.192 96.4207C142.192 98.8733 143.073 100.522 144.522 101.612C146.044 102.756 148.39 103.43 151.533 103.43C154.99 103.43 158.448 103.954 161.075 105.765C163.825 107.661 165.374 110.758 165.374 115.2C165.374 117.515 164.761 119.408 163.691 120.911C162.631 122.398 161.198 123.398 159.716 124.069C156.802 125.388 153.457 125.544 151.533 125.544C147.087 125.544 143.809 124.242 141.626 122.902C140.539 122.236 139.728 121.564 139.18 121.046C138.906 120.788 138.697 120.567 138.551 120.404C138.478 120.322 138.421 120.255 138.379 120.205C138.358 120.179 138.341 120.158 138.327 120.142C138.321 120.133 138.315 120.126 138.31 120.12L138.304 120.112L138.301 120.109L138.3 120.107C138.299 120.106 138.299 120.106 139.618 119.085L138.299 120.106L137.278 118.787L139.916 116.746L140.93 118.057L140.93 118.056C140.93 118.056 140.93 118.057 140.931 118.058C140.933 118.061 140.937 118.066 140.944 118.073C140.96 118.093 140.99 118.129 141.035 118.178C141.123 118.277 141.268 118.431 141.47 118.621C141.874 119.003 142.503 119.529 143.369 120.06C145.091 121.116 147.772 122.21 151.533 122.21C153.366 122.21 156.107 122.042 158.341 121.031C159.433 120.536 160.339 119.868 160.975 118.976C161.6 118.098 162.039 116.899 162.039 115.2C162.039 111.612 160.846 109.658 159.182 108.511C157.394 107.278 154.766 106.765 151.533 106.765C147.986 106.765 144.829 106.015 142.518 104.277C140.136 102.486 138.857 99.796 138.857 96.4207C138.857 93.2295 139.708 90.1224 141.837 87.7989Z" fill="white"/>
<path fill-rule="evenodd" clip-rule="evenodd" d="M101.485 87.7989C103.638 85.4482 106.884 84.1333 111.182 84.1333C115.492 84.1333 118.828 85.4785 121.087 86.8307C122.215 87.5057 123.078 88.1839 123.666 88.7016C123.96 88.9608 124.187 89.1809 124.345 89.3418C124.424 89.4223 124.486 89.4881 124.531 89.5367C124.554 89.561 124.572 89.5811 124.586 89.5965C124.593 89.6043 124.598 89.6109 124.603 89.6163L124.61 89.6235L124.613 89.6277C124.614 89.6283 124.614 89.6289 123.355 90.7222L124.614 89.6289L125.708 90.8879L123.19 93.0745L122.101 91.8213L122.101 91.821L122.1 91.8196C122.097 91.8164 122.09 91.8088 122.079 91.7971C122.058 91.7737 122.02 91.7337 121.967 91.6796C121.861 91.5714 121.692 91.407 121.462 91.2048C121.002 90.7998 120.303 90.2476 119.375 89.6923C117.522 88.5838 114.772 87.4682 111.182 87.4682C107.579 87.4682 105.32 88.5493 103.944 90.0515C102.543 91.581 101.841 93.7838 101.841 96.4207C101.841 98.8733 102.722 100.522 104.171 101.612C105.692 102.756 108.039 103.43 111.182 103.43C114.638 103.43 118.097 103.954 120.723 105.765C123.474 107.661 125.023 110.758 125.023 115.2C125.023 117.515 124.41 119.408 123.339 120.911C122.279 122.398 120.847 123.398 119.365 124.069C116.45 125.388 113.105 125.544 111.182 125.544C106.735 125.544 103.458 124.242 101.274 122.902C100.187 122.236 99.3767 121.564 98.8289 121.046C98.5548 120.788 98.3456 120.567 98.1995 120.404C98.1264 120.322 98.069 120.255 98.0271 120.205C98.0061 120.179 97.989 120.158 97.9757 120.142C97.969 120.133 97.9633 120.126 97.9586 120.12L97.9522 120.112L97.9495 120.109L97.9483 120.107C97.9478 120.106 97.9472 120.106 99.266 119.085L97.9472 120.106L96.9268 118.787L99.5642 116.746L100.579 118.057L100.578 118.056C100.578 118.056 100.579 118.057 100.579 118.058C100.582 118.061 100.586 118.066 100.592 118.073C100.608 118.093 100.639 118.129 100.683 118.178C100.772 118.277 100.916 118.431 101.118 118.621C101.522 119.003 102.152 119.529 103.018 120.06C104.74 121.116 107.42 122.21 111.182 122.21C113.014 122.21 115.756 122.042 117.989 121.031C119.081 120.536 119.988 119.868 120.623 118.976C121.249 118.098 121.688 116.899 121.688 115.2C121.688 111.612 120.495 109.658 118.831 108.511C117.043 107.278 114.414 106.765 111.182 106.765C107.635 106.765 104.477 106.015 102.166 104.277C99.784 102.486 98.5057 99.796 98.5057 96.4207C98.5057 93.2295 99.3569 90.1224 101.485 87.7989Z" fill="white"/>
<path fill-rule="evenodd" clip-rule="evenodd" d="M248.914 87.5229C239.339 87.5229 231.577 95.2848 231.577 104.86C231.577 114.434 239.339 122.196 248.914 122.196C253.971 122.196 258.52 120.033 261.692 116.577L264.149 118.831C260.373 122.947 254.944 125.531 248.914 125.531C237.497 125.531 228.242 116.276 228.242 104.86C228.242 93.443 237.497 84.188 248.914 84.188C254.944 84.188 260.373 86.7719 264.149 90.8878L261.692 93.1425C258.52 89.686 253.971 87.5229 248.914 87.5229Z" fill="white"/>
<path fill-rule="evenodd" clip-rule="evenodd" d="M382.769 82.6646V125.379H379.435V82.6646H382.769Z" fill="white"/>
<path fill-rule="evenodd" clip-rule="evenodd" d="M280.49 82.6646V125.379H277.155V82.6646H280.49Z" fill="white"/>
<path fill-rule="evenodd" clip-rule="evenodd" d="M333.975 83.729H367.87V87.0639H352.59V125.531H349.255V87.0639H333.975V83.729Z" fill="white"/>
</svg>
