<svg width="131" height="35" viewBox="0 0 131 35" fill="none" xmlns="http://www.w3.org/2000/svg">
<path d="M10.8908 34.1879V27.1455L9.00138 28.8345V31.7546H0.413086V34.1879H10.8908Z" fill="url(#paint0_linear_812_184)"/>
<path d="M11.0399 26.3508V19.6337H9.1696V24.0267H6.87388V20.0841H4.80491V24.0267H2.73593V19.6337H0.553488V26.3508H11.0399Z" fill="url(#paint1_linear_812_184)"/>
<path fill-rule="evenodd" clip-rule="evenodd" d="M0.942673 8.41263H11.1688V4.65403C11.1688 2.11671 9.11191 0.0598145 6.57459 0.0598145H5.53688C2.99957 0.0598145 0.942673 2.11671 0.942673 4.65402V8.41263ZM2.69295 6.26744H9.4181V5.56849C9.4181 3.9267 8.17725 2.32551 6.53546 2.32551H5.57559C3.9338 2.32551 2.69295 3.9267 2.69295 5.56849V6.26744Z" fill="url(#paint2_linear_812_184)"/>
<path fill-rule="evenodd" clip-rule="evenodd" d="M11.1339 9.70066V12.1688L9.11757 12.7407V15.57L11.1339 16.2322V18.5799L0.631607 15.4049V12.4346L11.1339 9.70066ZM7.12862 12.9444V15.3362L2.76684 13.9515L7.12862 12.9444Z" fill="url(#paint3_linear_812_184)"/>
<path d="M56.0273 0.968994H59.891V12.2155C59.891 14.5019 61.7445 16.3554 64.0309 16.3554C66.3174 16.3554 68.1709 14.5019 68.1709 12.2155V0.968994H72.2187V12.3574C72.2187 16.8285 68.5941 20.4531 64.123 20.4531C59.6519 20.4531 56.0273 16.8285 56.0273 12.3574V0.968994Z" fill="#070607"/>
<path d="M38.2594 19.5528L51.1592 19.5528L47.3194 16.1643L42.2629 16.1643L42.2629 0.942627L38.2594 0.942626L38.2594 19.5528Z" fill="#070607"/>
<path fill-rule="evenodd" clip-rule="evenodd" d="M33.3281 19.6328L29.0236 19.6328L27.2424 15.4521L19.3108 15.4521L17.5631 19.6328L13.3957 19.6328L21.4949 0.761962L25.3935 0.761963L33.3281 19.6328ZM25.8306 11.7883L20.6213 11.7883L23.3099 5.63794L25.8306 11.7883Z" fill="#070607"/>
<path d="M78.5557 19.621H82.4827V7.53952L87.8081 15.186L93.4665 7.53952V19.621H97.0604V1.11646H92.7783L87.8081 8.91589L82.8379 1.11646H78.5557V19.621Z" fill="#070607"/>
<path d="M104.091 0.967041V19.658H107.644V7.40862L117.066 19.658H120.31V0.967041H116.603V12.7841L107.644 0.967041H104.091Z" fill="#070607"/>
<path d="M127.274 0.967041V12.7841V19.658H127.738H130.982V0.967041H127.274Z" fill="#070607"/>
<path fill-rule="evenodd" clip-rule="evenodd" d="M84.2489 22.679L85.0622 22.6843L90.0581 33.3597L89.2422 33.7416L87.7109 30.4693H81.479L79.8938 33.7443L79.083 33.3519L84.2489 22.679ZM81.915 29.5685H87.2893L84.6474 23.9232L81.915 29.5685Z" fill="#070607"/>
<path fill-rule="evenodd" clip-rule="evenodd" d="M18.4637 23.3752L19.2771 23.3806L24.273 34.056L23.4571 34.4378L21.9257 31.1656H15.6939L14.1087 34.4406L13.2979 34.0482L18.4637 23.3752ZM16.1299 30.2648H21.5042L18.8623 24.6195L16.1299 30.2648Z" fill="#070607"/>
<path fill-rule="evenodd" clip-rule="evenodd" d="M130.858 21.9358V32.8625H129.957V21.9358H130.858Z" fill="#070607"/>
<path fill-rule="evenodd" clip-rule="evenodd" d="M122.932 22.2824L130.688 32.3169L129.975 32.8677L122.22 22.8333L122.932 22.2824Z" fill="#070607"/>
<path fill-rule="evenodd" clip-rule="evenodd" d="M122.924 22.2805L122.924 32.8626L122.023 32.8626L122.023 22.2805L122.924 22.2805Z" fill="#070607"/>
<path fill-rule="evenodd" clip-rule="evenodd" d="M112.895 23.3649C110.309 23.3649 108.212 25.4616 108.212 28.0479C108.212 30.6343 110.309 32.7309 112.895 32.7309C115.482 32.7309 117.578 30.6343 117.578 28.0479C117.578 25.4616 115.482 23.3649 112.895 23.3649ZM107.312 28.0479C107.312 24.9641 109.811 22.4641 112.895 22.4641C115.979 22.4641 118.479 24.9641 118.479 28.0479C118.479 31.1318 115.979 33.6317 112.895 33.6317C109.811 33.6317 107.312 31.1318 107.312 28.0479Z" fill="#070607"/>
<path fill-rule="evenodd" clip-rule="evenodd" d="M53.5213 23.696C50.935 23.696 48.8383 25.7926 48.8383 28.379C48.8383 30.9653 50.935 33.062 53.5213 33.062C56.1077 33.062 58.2043 30.9653 58.2043 28.379C58.2043 25.7926 56.1077 23.696 53.5213 23.696ZM47.9375 28.379C47.9375 25.2951 50.4375 22.7952 53.5213 22.7952C56.6052 22.7952 59.1051 25.2951 59.1051 28.379C59.1051 31.4628 56.6052 33.9628 53.5213 33.9628C50.4375 33.9628 47.9375 31.4628 47.9375 28.379Z" fill="#070607"/>
<path fill-rule="evenodd" clip-rule="evenodd" d="M38.6288 23.7707C39.2104 23.1357 40.087 22.7805 41.248 22.7805C42.4122 22.7805 43.3133 23.1439 43.9237 23.5091C44.2284 23.6915 44.4614 23.8747 44.6202 24.0145C44.6998 24.0845 44.761 24.144 44.8038 24.1874C44.8251 24.2092 44.8419 24.2269 44.854 24.2401C44.8601 24.2467 44.865 24.2521 44.8687 24.2562C44.8706 24.2583 44.8721 24.2601 44.8734 24.2616L44.8751 24.2635L44.8761 24.2647C44.8763 24.2648 44.8764 24.265 44.5363 24.5603L44.8764 24.265L45.1717 24.6051L44.4915 25.1957L44.1976 24.8572L44.1975 24.8571L44.1972 24.8567C44.1964 24.8559 44.1946 24.8538 44.1917 24.8507C44.1858 24.8443 44.1757 24.8335 44.1613 24.8189C44.1326 24.7897 44.087 24.7453 44.025 24.6907C43.9007 24.5813 43.7117 24.4321 43.4611 24.2821C42.9607 23.9827 42.2177 23.6813 41.248 23.6813C40.2749 23.6813 39.6647 23.9734 39.2931 24.3791C38.9146 24.7923 38.7248 25.3873 38.7248 26.0996C38.7248 26.7621 38.9628 27.2075 39.3542 27.5019C39.7652 27.8109 40.399 27.9931 41.248 27.9931C42.1817 27.9931 43.1159 28.1345 43.8254 28.6236C44.5683 29.1358 44.9867 29.9724 44.9867 31.1722C44.9867 31.7977 44.8212 32.309 44.532 32.7148C44.2457 33.1167 43.8587 33.3866 43.4584 33.5678C42.6712 33.9243 41.7676 33.9665 41.248 33.9665C40.0469 33.9665 39.1616 33.6147 38.5717 33.2528C38.2781 33.0727 38.0592 32.8912 37.9113 32.7515C37.8372 32.6816 37.7807 32.622 37.7413 32.5779C37.7215 32.5559 37.706 32.5377 37.6947 32.5241C37.689 32.5173 37.6844 32.5116 37.6808 32.5071C37.679 32.5048 37.6775 32.5029 37.6762 32.5013L37.6745 32.4991L37.6737 32.4981L37.6734 32.4977C37.6733 32.4975 37.6731 32.4973 38.0293 32.2217L37.6731 32.4973L37.3975 32.1411L38.1099 31.5898L38.3839 31.944L38.3837 31.9437C38.3838 31.9438 38.3839 31.944 38.3841 31.9442C38.3847 31.9449 38.3859 31.9463 38.3875 31.9484C38.392 31.9537 38.4001 31.9634 38.4121 31.9767C38.4361 32.0035 38.4752 32.045 38.5297 32.0964C38.6388 32.1994 38.8089 32.3415 39.0428 32.485C39.5079 32.7703 40.232 33.0657 41.248 33.0657C41.743 33.0657 42.4836 33.0204 43.0868 32.7472C43.3818 32.6136 43.6267 32.4331 43.7984 32.1921C43.9673 31.9551 44.0859 31.6312 44.0859 31.1722C44.0859 30.203 43.7637 29.6752 43.3141 29.3653C42.8312 29.0324 42.1212 28.8939 41.248 28.8939C40.2899 28.8939 39.4369 28.6912 38.8128 28.2219C38.1693 27.7379 37.824 27.0113 37.824 26.0996C37.824 25.2376 38.0539 24.3983 38.6288 23.7707Z" fill="#070607"/>
<path fill-rule="evenodd" clip-rule="evenodd" d="M27.7294 23.7707C28.311 23.1357 29.1876 22.7805 30.3485 22.7805C31.5128 22.7805 32.4139 23.1439 33.0243 23.5091C33.329 23.6915 33.5619 23.8747 33.7208 24.0145C33.8003 24.0845 33.8616 24.144 33.9043 24.1874C33.9257 24.2092 33.9425 24.2269 33.9546 24.2401C33.9606 24.2467 33.9655 24.2521 33.9693 24.2562C33.9711 24.2583 33.9727 24.2601 33.974 24.2616L33.9757 24.2635L33.9767 24.2647C33.9769 24.2648 33.977 24.265 33.6369 24.5603L33.977 24.265L34.2723 24.6051L33.5921 25.1957L33.2982 24.8572L33.2981 24.8571L33.2978 24.8567C33.297 24.8559 33.2952 24.8538 33.2923 24.8507C33.2864 24.8443 33.2763 24.8335 33.2619 24.8189C33.2332 24.7897 33.1876 24.7453 33.1256 24.6907C33.0013 24.5813 32.8123 24.4321 32.5617 24.2821C32.0613 23.9827 31.3183 23.6813 30.3485 23.6813C29.3755 23.6813 28.7653 23.9734 28.3936 24.3791C28.0152 24.7923 27.8254 25.3873 27.8254 26.0996C27.8254 26.7621 28.0633 27.2075 28.4548 27.5019C28.8658 27.8109 29.4996 27.9931 30.3485 27.9931C31.2823 27.9931 32.2165 28.1345 32.926 28.6236C33.6689 29.1358 34.0873 29.9724 34.0873 31.1722C34.0873 31.7977 33.9218 32.309 33.6326 32.7148C33.3463 33.1167 32.9593 33.3866 32.559 33.5678C31.7718 33.9243 30.8682 33.9665 30.3485 33.9665C29.1475 33.9665 28.2622 33.6147 27.6723 33.2528C27.3787 33.0727 27.1598 32.8912 27.0119 32.7515C26.9378 32.6816 26.8813 32.622 26.8418 32.5779C26.8221 32.5559 26.8066 32.5377 26.7953 32.5241C26.7896 32.5173 26.785 32.5116 26.7814 32.5071C26.7796 32.5048 26.778 32.5029 26.7768 32.5013L26.775 32.4991L26.7743 32.4981L26.774 32.4977C26.7738 32.4975 26.7737 32.4973 27.1299 32.2217L26.7737 32.4973L26.498 32.1411L27.2105 31.5898L27.4845 31.944L27.4843 31.9437C27.4844 31.9438 27.4845 31.944 27.4847 31.9442C27.4853 31.9449 27.4864 31.9463 27.4881 31.9484C27.4926 31.9537 27.5007 31.9634 27.5127 31.9767C27.5367 32.0035 27.5757 32.045 27.6302 32.0964C27.7394 32.1994 27.9095 32.3415 28.1434 32.485C28.6085 32.7703 29.3326 33.0657 30.3485 33.0657C30.8435 33.0657 31.5842 33.0204 32.1874 32.7472C32.4824 32.6136 32.7272 32.4331 32.899 32.1921C33.0678 31.9551 33.1865 31.6312 33.1865 31.1722C33.1865 30.203 32.8642 29.6752 32.4147 29.3653C31.9318 29.0324 31.2218 28.8939 30.3485 28.8939C29.3904 28.8939 28.5375 28.6912 27.9134 28.2219C27.2698 27.7379 26.9245 27.0113 26.9245 26.0996C26.9245 25.2376 27.1545 24.3983 27.7294 23.7707Z" fill="#070607"/>
<path fill-rule="evenodd" clip-rule="evenodd" d="M67.5526 23.696C64.9662 23.696 62.8696 25.7926 62.8696 28.379C62.8696 30.9653 64.9662 33.062 67.5526 33.062C68.9186 33.062 70.1475 32.4777 71.0041 31.544L71.6679 32.153C70.6478 33.2648 69.1814 33.9628 67.5526 33.9628C64.4687 33.9628 61.9688 31.4628 61.9688 28.379C61.9688 25.2951 64.4687 22.7952 67.5526 22.7952C69.1814 22.7952 70.6478 23.4931 71.6679 24.6049L71.0041 25.2139C70.1475 24.2803 68.9186 23.696 67.5526 23.696Z" fill="#070607"/>
<path fill-rule="evenodd" clip-rule="evenodd" d="M103.709 22.384V33.922H102.809V22.384H103.709Z" fill="#070607"/>
<path fill-rule="evenodd" clip-rule="evenodd" d="M76.0825 22.384V33.922H75.1816V22.384H76.0825Z" fill="#070607"/>
<path fill-rule="evenodd" clip-rule="evenodd" d="M90.5293 22.6711H99.6852V23.572H95.5576V33.9627H94.6568V23.572H90.5293V22.6711Z" fill="#070607"/>
<defs>
<linearGradient id="paint0_linear_812_184" x1="5.79094" y1="0.0598145" x2="5.79094" y2="34.1879" gradientUnits="userSpaceOnUse">
<stop stop-color="#192F66"/>
<stop offset="1" stop-color="#609443"/>
</linearGradient>
<linearGradient id="paint1_linear_812_184" x1="5.79094" y1="0.0598145" x2="5.79094" y2="34.1879" gradientUnits="userSpaceOnUse">
<stop stop-color="#192F66"/>
<stop offset="1" stop-color="#609443"/>
</linearGradient>
<linearGradient id="paint2_linear_812_184" x1="5.79094" y1="0.0598145" x2="5.79094" y2="34.1879" gradientUnits="userSpaceOnUse">
<stop stop-color="#192F66"/>
<stop offset="1" stop-color="#609443"/>
</linearGradient>
<linearGradient id="paint3_linear_812_184" x1="5.79094" y1="0.0598145" x2="5.79094" y2="34.1879" gradientUnits="userSpaceOnUse">
<stop stop-color="#192F66"/>
<stop offset="1" stop-color="#609443"/>
</linearGradient>
</defs>
</svg>
